<?xml version="1.0" encoding="utf-8"?>
<!-- Svg Vector Icons : http://www.onlinewebfonts.com/icon -->
<!DOCTYPE svg PUBLIC "-//W3C//DTD SVG 1.1//EN" "http://www.w3.org/Graphics/SVG/1.1/DTD/svg11.dtd">
<svg version="1.1" xmlns="http://www.w3.org/2000/svg" xmlns:xlink="http://www.w3.org/1999/xlink" x="0px" y="0px" viewBox="0 0 1000 1000" enable-background="new 0 0 1000 1000" xml:space="preserve" fill="#eceff1">
<metadata> Svg Vector Icons : http://www.onlinewebfonts.com/icon </metadata>
<g><g><g><g><g><path d="M881.1,10H118.9C58.8,10,10,58.8,10,118.9v762.2C10,941.2,58.8,990,118.9,990h762.2c60.1,0,108.9-48.8,108.9-108.9V118.9C990,58.8,941.2,10,881.1,10z M881.1,881.1H118.9V118.9h762.2V881.1z"/><path d="M282.2,554.4h163.3v163.3c0,29.9,24.4,54.4,54.4,54.4c29.9,0,54.4-24.5,54.4-54.4V554.4h163.3c29.9,0,54.4-24.5,54.4-54.4c0-30.1-24.5-54.4-54.4-54.4H554.4V282.2c0-30.1-24.5-54.4-54.4-54.4c-30.1,0-54.4,24.4-54.4,54.4v163.3H282.2c-30.1,0-54.4,24.4-54.4,54.4C227.8,529.9,252.2,554.4,282.2,554.4z"/></g></g></g></g><g></g><g></g><g></g><g></g><g></g><g></g><g></g><g></g><g></g><g></g><g></g><g></g><g></g><g></g><g></g></g>
</svg>
